<svg xmlns="http://www.w3.org/2000/svg" width="32" height="32" viewBox="0 0 32 32" fill="none">
  <rect width="32" height="32" rx="8" fill="#8B5E3C"/>
  <path d="M16 6C15.2 6 14.5 6.7 14.5 7.5V19.5C13 20.3 12 21.8 12 23.5C12 25.7 13.8 27.5 16 27.5C18.2 27.5 20 25.7 20 23.5C20 21.8 19 20.3 17.5 19.5V7.5C17.5 6.7 16.8 6 16 6Z" fill="white"/>
  <path d="M9 8C8.4 8 8 8.4 8 9V14C8 14.6 8.4 15 9 15C9.6 15 10 14.6 10 14V9C10 8.4 9.6 8 9 8Z" fill="white" opacity="0.8"/>
  <path d="M23 8C22.4 8 22 8.4 22 9V14C22 14.6 22.4 15 23 15C23.6 15 24 14.6 24 14V9C24 8.4 23.6 8 23 8Z" fill="white" opacity="0.8"/>
</svg>
